<svg xmlns="http://www.w3.org/2000/svg" width="29.92" height="24.047" viewBox="0 0 29.92 24.047">
  <g id="noun-manage-1562274" transform="translate(-147.279 -98.942)">
    <path id="Path_224" data-name="Path 224" d="M377.208,277.432l-1.21-.155a5.423,5.423,0,0,0-.257-.6l.743-.948a.612.612,0,0,0-.041-.818l-1.5-1.5a.614.614,0,0,0-.816-.043l-.95.744a5.325,5.325,0,0,0-.6-.257l-.155-1.211a.615.615,0,0,0-.573-.532h-2.121a.607.607,0,0,0-.112,0l-.018,0a.611.611,0,0,0-.491.53l-.155,1.21a5.261,5.261,0,0,0-.6.257l-.948-.743a.616.616,0,0,0-.386-.137.609.609,0,0,0-.433.178l-1.5,1.5a.612.612,0,0,0-.043.816l.745.95a5.38,5.38,0,0,0-.257.6l-1.211.155a.615.615,0,0,0-.532.612v2.13a.615.615,0,0,0,.532.573l1.21.155a5.379,5.379,0,0,0,.257.6l-.743.948a.613.613,0,0,0,.042.819l1.5,1.5a.614.614,0,0,0,.816.043l.95-.745a5.387,5.387,0,0,0,.6.257l.155,1.211a.615.615,0,0,0,.608.532h2.134a.615.615,0,0,0,.573-.533l.155-1.21a5.316,5.316,0,0,0,.6-.256l.948.743a.614.614,0,0,0,.819-.041l1.5-1.5a.611.611,0,0,0,.043-.816l-.745-.951a5.274,5.274,0,0,0,.257-.6l1.211-.154a.615.615,0,0,0,.532-.573v-2.129a.614.614,0,0,0-.533-.613Zm-.735,2.167-.995.121a.605.605,0,0,0-.522.452,4.3,4.3,0,0,1-.454,1.108.619.619,0,0,0,.046.7l.655.8-.745.746-.8-.657a.613.613,0,0,0-.693-.042,4.336,4.336,0,0,1-1.111.461.607.607,0,0,0-.449.522l-.122,1.013h-1.019l-.121-1.01a.614.614,0,0,0-.452-.529,4.305,4.305,0,0,1-1.108-.457.625.625,0,0,0-.7.044l-.8.655-.746-.746.657-.8a.617.617,0,0,0,.042-.693,4.321,4.321,0,0,1-.461-1.111.608.608,0,0,0-.522-.45l-1.014-.122V278.58l1.009-.12a.615.615,0,0,0,.53-.453,4.314,4.314,0,0,1,.457-1.108.619.619,0,0,0-.044-.7l-.653-.8.744-.723.8.632a.615.615,0,0,0,.693.042,4.334,4.334,0,0,1,1.111-.461.592.592,0,0,0,.45-.508l.121-1h1.019l.121.995a.6.6,0,0,0,.452.523,4.3,4.3,0,0,1,1.108.453.625.625,0,0,0,.7-.044l.8-.632.745.723-.655.8a.617.617,0,0,0-.042.694,4.311,4.311,0,0,1,.46,1.112.591.591,0,0,0,.508.449l1,.121Z" transform="translate(-200.542 -163.07)" fill="#034773"/>
    <path id="Path_225" data-name="Path 225" d="M413.332,318.09a3.581,3.581,0,1,0,3.581,3.581A3.584,3.584,0,0,0,413.332,318.09ZM415,323.336a2.362,2.362,0,1,1,.687-1.666,2.337,2.337,0,0,1-.687,1.666Z" transform="translate(-243.104 -205.652)" fill="#034773"/>
    <path id="Path_226" data-name="Path 226" d="M148.656,118.663V104.478a1.061,1.061,0,0,1,1.117-.992H172.2a1.063,1.063,0,0,1,1.119.992v5.271h1.378v-5.271a2.33,2.33,0,0,0-2.5-2.22h-5.769V99.964a1.071,1.071,0,0,0-1.1-1.022h-8.679a1.07,1.07,0,0,0-1.1,1.022v2.294h-5.771a2.329,2.329,0,0,0-2.494,2.22v14.186a2.36,2.36,0,0,0,2.494,2.261h12.934v-1.351H149.773a1,1,0,0,1-1.117-.91Zm8.4-18.37h7.852v1.965h-7.852Z" transform="translate(0 0)" fill="#034773"/>
  </g>
</svg>
