<svg xmlns="http://www.w3.org/2000/svg" width="21.265" height="21.305" viewBox="0 0 21.265 21.305">
  <path id="Icon_feather-phone" data-name="Icon feather-phone" d="M23.43,18.2v3.056a2.038,2.038,0,0,1-2.221,2.038,20.162,20.162,0,0,1-8.792-3.128A19.867,19.867,0,0,1,6.3,14.054,20.162,20.162,0,0,1,3.176,5.221,2.038,2.038,0,0,1,5.2,3H8.26A2.038,2.038,0,0,1,10.3,4.752a13.082,13.082,0,0,0,.713,2.863,2.038,2.038,0,0,1-.458,2.15L9.258,11.059a16.3,16.3,0,0,0,6.113,6.113l1.294-1.294a2.038,2.038,0,0,1,2.15-.458,13.082,13.082,0,0,0,2.863.713A2.038,2.038,0,0,1,23.43,18.2Z" transform="translate(-2.667 -2.5)" fill="none" stroke="#000" stroke-linecap="round" stroke-linejoin="round" stroke-width="1"/>
</svg>
