<svg xmlns="http://www.w3.org/2000/svg" width="17.076" height="23.107" viewBox="0 0 17.076 23.107">
  <g id="location-svgrepo-com_1_" data-name="location-svgrepo-com (1)" transform="translate(-41.103)">
    <g id="Group_100" data-name="Group 100" transform="translate(41.103)">
      <g id="Group_99" data-name="Group 99" transform="translate(0)">
        <path id="Path_348" data-name="Path 348" d="M49.641,0A8.548,8.548,0,0,0,41.1,8.538c0,4.558,7.784,13.972,8.115,14.37a.55.55,0,0,0,.846,0c.331-.4,8.115-9.812,8.115-14.37A8.548,8.548,0,0,0,49.641,0Zm0,21.683c-.69-.862-2.124-2.7-3.543-4.8C43.55,13.117,42.2,10.231,42.2,8.538a7.438,7.438,0,0,1,14.876,0c0,1.692-1.347,4.579-3.895,8.348C51.765,18.985,50.331,20.822,49.641,21.683Z" transform="translate(-41.103)"/>
        <path id="Path_350" data-name="Path 350" d="M100.511,57.5a4.511,4.511,0,1,0,4.511,4.511A4.516,4.516,0,0,0,100.511,57.5Zm0,7.922a3.411,3.411,0,1,1,3.411-3.411A3.415,3.415,0,0,1,100.511,65.422Z" transform="translate(-91.973 -53.282)"/>
      </g>
    </g>
  </g>
</svg>
