<svg xmlns="http://www.w3.org/2000/svg" width="29.584" height="23.125" viewBox="0 0 29.584 23.125">
  <g id="telephone-svgrepo-com" transform="translate(0 -53.492)">
    <path id="Path_346" data-name="Path 346" d="M153.882,262.81a3.836,3.836,0,1,0,3.836,3.836A3.84,3.84,0,0,0,153.882,262.81Zm0,6.438a2.6,2.6,0,1,1,2.6-2.6A2.606,2.606,0,0,1,153.882,269.248Z" transform="translate(-140.988 -196.68)"/>
    <path id="Path_347" data-name="Path 347" d="M29.482,64.2A6.763,6.763,0,0,0,25.7,59.231l0-.316c0-2.762-4.52-5.423-12.9-5.423-6.81,0-12.829,2.55-12.8,5.656l.015,1.695A1.827,1.827,0,0,0,1.8,62.685h.016l4-.036a1.824,1.824,0,0,0,1.763-1.875,2.826,2.826,0,0,1,1.434-2.282,7.307,7.307,0,0,1,3.825-1.084c2.943,0,5.3,1.466,5.32,3.269a1.829,1.829,0,0,0,1.8,1.843l4-.036a1.73,1.73,0,0,0,1.268-.57,1.89,1.89,0,0,0,.5-1.284,5.59,5.59,0,0,1,.748,8.932,4.469,4.469,0,0,1-3.052,1,5.125,5.125,0,0,0-1.169-2.547L15.857,62V60.285H14.624v1.367H11.165V60.285H9.932V62s-5.086,4.707-6.34,5.962A5.371,5.371,0,0,0,2.315,71.5a5.124,5.124,0,0,0,5.118,5.118H18.356a5.125,5.125,0,0,0,5.11-4.826,5.739,5.739,0,0,0,3.81-1.3A6.89,6.89,0,0,0,29.482,64.2Zm-5.539-2.944-4.006.036a.591.591,0,0,1-.549-.621c0-2.737-3.158-4.491-6.564-4.491a8.346,8.346,0,0,0-4.506,1.3,4.006,4.006,0,0,0-1.975,3.312.592.592,0,0,1-.542.631l-4,.036h0a.593.593,0,0,1-.549-.621l-.015-1.694C1.214,57.1,6.2,54.725,12.812,54.725c6.489,0,11.658,1.981,11.658,4.2l.015,1.695A.594.594,0,0,1,23.943,61.251ZM22.243,71.5a3.891,3.891,0,0,1-3.886,3.886H7.433A3.89,3.89,0,0,1,3.547,71.5a4.278,4.278,0,0,1,.914-2.66l6.332-5.953H15l6.332,5.953A4.059,4.059,0,0,1,22.243,71.5Z" transform="translate(0)"/>
  </g>
</svg>
