<svg xmlns="http://www.w3.org/2000/svg" width="42.286" height="36.557" viewBox="0 0 42.286 36.557">
  <g id="noun-clinic-1533516" transform="translate(-127.1 -87.212)">
    <path id="Path_84" data-name="Path 84" d="M168.832,105.026a1.1,1.1,0,0,0-.157-1.519l-19.8-15.821a1.1,1.1,0,0,0-1.257,0l-19.8,15.821a1.052,1.052,0,0,0,.629,1.886,1.047,1.047,0,0,0,.681-.209l1.519-1.257v15.4a4.191,4.191,0,0,0,4.191,4.191h26.822a4.191,4.191,0,0,0,4.191-4.191v-15.4l1.519,1.257a1.048,1.048,0,0,0,1.467-.157Zm-5.081,14.3a2.1,2.1,0,0,1-2.1,2.1H134.832a2.1,2.1,0,0,1-2.1-2.1V102.25l15.507-12.363L163.75,102.25Z" transform="translate(0)" fill="#034773" stroke="#034773" stroke-width="0.5"/>
    <path id="Path_85" data-name="Path 85" d="M291.083,269.36v4.872h-4.924v2.1h4.924v4.925h2.1v-4.925H298.1v-2.1h-4.925V269.36Z" transform="translate(-143.888 -164.857)" fill="#034773" stroke="#034773" stroke-width="0.5"/>
  </g>
</svg>
