<svg xmlns="http://www.w3.org/2000/svg" width="49.913" height="37.197" viewBox="0 0 49.913 37.197">
  <g id="noun-pulse-1292478" transform="translate(-131.131 -117.73)">
    <path id="Path_128" data-name="Path 128" d="M178.335,152.116h-12.7a2.707,2.707,0,0,0-.362.024L163.1,139.058a2.709,2.709,0,0,0-5.317-.143l-4.2,18.946-2.543-9.264a2.708,2.708,0,0,0-5.256.131l-1.193,5.384a2.709,2.709,0,0,0-2.545-1.781H133.84a2.708,2.708,0,1,0,0,5.417H140.1l2.455,7.36a2.708,2.708,0,0,0,5.214-.271l.946-4.269,2.543,9.264a2.708,2.708,0,0,0,2.611,1.991h.068a2.709,2.709,0,0,0,2.577-2.122l3.531-15.941,1.375,8.308a2.709,2.709,0,0,0,2.594,2.265h.079a2.709,2.709,0,0,0,2.641-2.112l1.059-4.69h10.54a2.708,2.708,0,1,0,0-5.417Zm0,3.976H166.643l-1.313,5.813a1.267,1.267,0,0,1-2.487-.072l-2.593-15.661-5.142,23.217a1.267,1.267,0,0,1-1.206.993h-.032a1.268,1.268,0,0,1-1.222-.932l-4.083-14.871-2.2,9.946a1.267,1.267,0,0,1-2.439.127l-2.784-8.345h-7.3a1.267,1.267,0,1,1,0-2.534h8.214a1.268,1.268,0,0,1,1.2.866l1.624,4.868L147.2,149.04a1.267,1.267,0,0,1,2.459-.061l4.083,14.87,5.454-24.623a1.267,1.267,0,0,1,2.487.067l2.605,15.732.109-.481a1.267,1.267,0,0,1,1.236-.988h12.705a1.267,1.267,0,1,1,0,2.534Z" transform="translate(0 -16.897)" fill="#034773"/>
    <path id="Path_129" data-name="Path 129" d="M152.433,117.73a7.751,7.751,0,1,0,7.751,7.751A7.76,7.76,0,0,0,152.433,117.73Zm0,14.012a6.26,6.26,0,1,1,6.26-6.26A6.267,6.267,0,0,1,152.433,131.742Z" transform="translate(-12.011 0)" fill="#034773"/>
    <path id="Path_130" data-name="Path 130" d="M184.808,154.47H182.82v2.584h-2.736v1.988h2.736v2.584h1.988v-2.584h2.432v-1.988h-2.432Z" transform="translate(-43.392 -32.567)" fill="#034773"/>
  </g>
</svg>
