<svg xmlns="http://www.w3.org/2000/svg" width="50" height="46.331" viewBox="0 0 50 46.331">
  <g id="noun-hospital-1139140" transform="translate(-151.197 -95.812)">
    <path id="Path_120" data-name="Path 120" d="M317.6,144.56h-2.338v-2.345a.7.7,0,0,0-.7-.7h-3.155a.7.7,0,0,0-.7.7v2.345h-2.338a.7.7,0,0,0-.7.7v3.148a.7.7,0,0,0,.7.7h2.345v2.345a.7.7,0,0,0,.7.7h3.148a.7.7,0,0,0,.7-.7v-2.345h2.345a.7.7,0,0,0,.7-.7v-3.148a.7.7,0,0,0-.711-.7Zm-.7,3.148h-2.338a.7.7,0,0,0-.7.7v2.345H312.11v-2.345a.7.7,0,0,0-.7-.7h-2.338v-1.739h2.345a.7.7,0,0,0,.7-.7v-2.345h1.739v2.345a.7.7,0,0,0,.7.7h2.345Z" transform="translate(-136.787 -39.952)" fill="#034773"/>
    <path id="Path_121" data-name="Path 121" d="M200.492,115.643H188.345V99.566a3.761,3.761,0,0,0-3.753-3.753H167.8a3.761,3.761,0,0,0-3.753,3.753v16.077H151.9a.7.7,0,0,0-.7.7v25.091a.7.7,0,0,0,.7.7h48.591a.7.7,0,0,0,.7-.7V116.348a.7.7,0,0,0-.7-.7Zm-36.443,25.091H152.606V117.052h11.443Zm11.443-6.971a.7.7,0,0,0-1.232.45v1.817a.7.7,0,0,0,1.232.45v4.226h-5.014V129.538h5.014Zm6.43,6.951H176.9v-4.226h0a.7.7,0,0,0,1.232-.451v-1.8a.708.708,0,0,0-1.232-.472v-4.226h5.021Zm5.021-24.38v24.4h-3.613v-11.9a.7.7,0,0,0-.7-.7H169.775a.7.7,0,0,0-.7.7v11.9h-3.613V99.566a2.352,2.352,0,0,1,2.345-2.345h16.789a2.352,2.352,0,0,1,2.345,2.345Zm12.844,24.4H188.345V117.052h11.443Z" fill="#034773"/>
    <path id="Path_122" data-name="Path 122" d="M170.75,336.7h7.106a.617.617,0,0,0,.618-.618v-9.268a.618.618,0,0,0-.618-.618H170.75a.618.618,0,0,0-.618.618v9.268a.617.617,0,0,0,.618.618Zm.618-9.268h5.87v8.033h-5.87Z" transform="translate(-15.971 -200.683)" fill="#034773"/>
    <path id="Path_228" data-name="Path 228" d="M170.75,336.7h7.106a.617.617,0,0,0,.618-.618v-9.268a.618.618,0,0,0-.618-.618H170.75a.618.618,0,0,0-.618.618v9.268a.617.617,0,0,0,.618.618Zm.618-9.268h5.87v8.033h-5.87Z" transform="translate(20.029 -200.683)" fill="#034773"/>
    <path id="Path_124" data-name="Path 124" d="M190.513,346.072a.7.7,0,0,0-.972.2l-1.845,2.817a.7.7,0,1,0,1.176.775l1.852-2.817h0a.7.7,0,0,0-.211-.979Z" transform="translate(-31.802 -218.689)" fill="#034773"/>
    <path id="Path_230" data-name="Path 230" d="M190.513,346.072a.7.7,0,0,0-.972.2l-1.845,2.817a.7.7,0,1,0,1.176.775l1.852-2.817h0a.7.7,0,0,0-.211-.979Z" transform="translate(4.198 -218.689)" fill="#034773"/>
    <path id="Path_125" data-name="Path 125" d="M202.1,357.222a.7.7,0,0,0-.972.2l-1.845,2.817a.7.7,0,1,0,1.176.775l1.852-2.817a.7.7,0,0,0-.211-.979Z" transform="translate(-41.761 -227.024)" fill="#034773"/>
    <path id="Path_229" data-name="Path 229" d="M202.1,357.222a.7.7,0,0,0-.972.2l-1.845,2.817a.7.7,0,1,0,1.176.775l1.852-2.817a.7.7,0,0,0-.211-.979Z" transform="translate(-5.761 -227.024)" fill="#034773"/>
  </g>
</svg>
