<svg xmlns="http://www.w3.org/2000/svg" width="46.323" height="34.76" viewBox="0 0 46.323 34.76">
  <g id="noun-clients-808206" transform="translate(-91.399 -88.603)">
    <path id="Path_61" data-name="Path 61" d="M223.435,111.158a5.878,5.878,0,1,1-5.878-5.878,5.878,5.878,0,0,1,5.878,5.878" transform="translate(-102.997 -14.328)" fill="none" stroke="#034773" stroke-miterlimit="10" stroke-width="2"/>
    <path id="Path_62" data-name="Path 62" d="M129.78,285.6l-7.419,7.419-7.419-7.419-1.06.289a8.875,8.875,0,0,0-6.359,8.479v7.13H137.1v-7.13a8.874,8.874,0,0,0-6.36-8.479Z" transform="translate(-7.8 -179.135)" fill="none" stroke="#034773" stroke-miterlimit="10" stroke-width="2"/>
    <path id="Path_63" data-name="Path 63" d="M320.32,92.108a5.421,5.421,0,0,1,4.625-2.5,5.589,5.589,0,0,1,0,11.177,4.9,4.9,0,0,1-3.083-.963" transform="translate(-202.291)" fill="none" stroke="#034773" stroke-miterlimit="10" stroke-width="2"/>
    <path id="Path_64" data-name="Path 64" d="M414.509,276.091h7.419v-6.745a8.383,8.383,0,0,0-5.974-8.093l-1.06-.289-3.854,3.854" transform="translate(-285.207 -156.619)" fill="none" stroke="#034773" stroke-miterlimit="10" stroke-width="2"/>
    <path id="Path_65" data-name="Path 65" d="M131.174,92.108a5.421,5.421,0,0,0-4.625-2.5,5.589,5.589,0,1,0,0,11.177,4.9,4.9,0,0,0,3.083-.963" transform="translate(-20.083)" fill="none" stroke="#034773" stroke-miterlimit="10" stroke-width="2"/>
    <path id="Path_66" data-name="Path 66" d="M29.818,276.091H22.4v-6.745a8.383,8.383,0,0,1,5.974-8.093l1.06-.289,3.854,3.854" transform="translate(70 -156.619)" fill="none" stroke="#034773" stroke-miterlimit="10" stroke-width="2"/>
  </g>
</svg>
