<svg xmlns="http://www.w3.org/2000/svg" width="71.818" height="72.26" viewBox="0 0 71.818 72.26">
  <path id="Path_60" data-name="Path 60" d="M136.637,46.987c0-.032-.01-.064-.016-.1a1.573,1.573,0,0,0-.179-.456c-.425-.747-2-.379-3.11-.121-.247.058-.474.111-.689.15a.493.493,0,0,1-.177-.969c.171-.032.4-.085.647-.142a9.682,9.682,0,0,1,2.345-.345l-.015-.038c-.246-.647-.363-.954-.945-1.163-.469-.168-2.56.6-3.857,1.07l-.427.157a5.607,5.607,0,0,0-1.443.991c-.606.52-1.273,1.172-1.922,1.837s-2.754,3.45-4.524,5.791c-.864,1.143-1.649,2.181-2.158,2.83a10.92,10.92,0,0,1,4,1.669l.344.293a27.5,27.5,0,0,1,2.419,2.22,25.333,25.333,0,0,1,1.829-2.208A11.665,11.665,0,0,1,130.64,56.8a12.846,12.846,0,0,0,1.728-1.355,17.012,17.012,0,0,0,1.3-1.439,8.048,8.048,0,0,1,2.736-2.088,3.016,3.016,0,0,1,2.54-.1h0a.535.535,0,0,0,.147-.181.4.4,0,0,0,.025-.057,1.172,1.172,0,0,0-.2-1.089c-.052-.091-.027-.044-.066-.113-.425-.747-2-.379-3.11-.121-.247.058-.474.111-.689.15a.493.493,0,0,1-.177-.969c.171-.032.4-.085.647-.142a10.3,10.3,0,0,1,2.224-.346c0-.028-.009-.056-.015-.083a1.571,1.571,0,0,0-.177-.447c-.425-.747-2-.379-3.11-.121-.247.058-.474.111-.689.15a.493.493,0,0,1-.177-.969c.171-.032.4-.085.647-.142a9.359,9.359,0,0,1,2.419-.342Zm.307-28.719L135.767,23.2a.306.306,0,0,1-.054.115A31.432,31.432,0,0,1,144.883,45c0,.253.007.438.007.555a29.506,29.506,0,0,1-8.737,21c-.111.111-.223.22-.336.329l.9,2.143a2.9,2.9,0,0,1,3.092.046q.447-.48.894-1,.478-.555.95-1.153a2.6,2.6,0,0,1,.087-3.567,2.563,2.563,0,0,1,2.772-.574q.483-.818.9-1.63.412-.793.788-1.617a2.091,2.091,0,0,1,1.238-3.769,2.014,2.014,0,0,1,.217.011,34.8,34.8,0,0,0,1.237-5.157A35.4,35.4,0,0,0,149.339,45a34.889,34.889,0,0,0-10.156-24.672q-1.073-1.08-2.239-2.065Zm-1.721,4.567,1.2-5q-1.114-.9-2.3-1.716l-1.2,1.832c.05.044.1.091.146.139a3.227,3.227,0,0,1,.712,3.447q.743.626,1.447,1.3Zm-9.25-6.057,3.9-3.14a34.48,34.48,0,0,0-35.56,3.113,2.94,2.94,0,0,1-.816,3.625l.887,2.308A30.69,30.69,0,0,1,114.658,14.6a28.507,28.507,0,0,1,7.37.871,28.916,28.916,0,0,1,3.946,1.31Zm4.5-2.836-3.858,3.109q1.019.451,2,.977a3.177,3.177,0,0,1,3.48-.611l1.206-1.843q-1.371-.881-2.828-1.634ZM92.813,70.128,94.4,67.561a30.431,30.431,0,0,1-9.954-22.556,30.1,30.1,0,0,1,8.851-21.278c.105-.106.211-.211.318-.315l-.987-2.567a2.9,2.9,0,0,1-2.6-.391q-.548.556-1.054,1.118-.422.468-.831.957l.055.054a2.6,2.6,0,0,1,0,3.659,2.561,2.561,0,0,1-3.047.444q-.453.738-.867,1.491-.44.8-.837,1.626a2.088,2.088,0,0,1-1.552,3.769A34.8,34.8,0,0,0,80.5,39.008a35.358,35.358,0,0,0-.509,6A34.458,34.458,0,0,0,82.83,58.726,36.945,36.945,0,0,0,90.8,70.31a2.237,2.237,0,0,1,2.017-.182Zm2.048-2.153-1.515,2.457a2.236,2.236,0,0,1,.226.2,2.274,2.274,0,0,1,.5,2.444,38.438,38.438,0,0,0,3.75,2.378l1.314-2.443c-.052-.043-.1-.089-.15-.138a2.275,2.275,0,0,1-.57-2.226,30.4,30.4,0,0,1-3.551-2.67Zm4.791,5.362-1.3,2.409a35.987,35.987,0,0,0,5.537,2.389,33.865,33.865,0,0,0,10.77,1.761,35.231,35.231,0,0,0,9.2-1.2,33.716,33.716,0,0,0,8.419-3.552q.94-.558,1.81-1.152.778-.531,1.538-1.115a2.948,2.948,0,0,1,.309-3.157l-.885-2.117a30.4,30.4,0,0,1-19.82,7.808q-.385.007-.571.007a29.939,29.939,0,0,1-12.391-2.667c-.037.043-.075.085-.115.125a2.237,2.237,0,0,1-2.507.465Zm-6.141.549a2.237,2.237,0,0,1-3.116-.059A2.272,2.272,0,0,1,90.1,71,37.946,37.946,0,0,1,81.932,59.12,35.455,35.455,0,0,1,79,45.006a36.32,36.32,0,0,1,.525-6.163,35.8,35.8,0,0,1,1.46-5.662,2.116,2.116,0,0,1-.214-.188,2.1,2.1,0,0,1,0-2.956,2.065,2.065,0,0,1,1.469-.612,2.106,2.106,0,0,1,.282.019q.425-.886.892-1.739t.963-1.653a2.6,2.6,0,0,1,.173-3.467A2.562,2.562,0,0,1,87.3,22q.457-.549.941-1.087.539-.6,1.087-1.155a2.945,2.945,0,0,1,.318-3.767,2.9,2.9,0,0,1,4.085-.035,35.5,35.5,0,0,1,46.148,3.677,35.881,35.881,0,0,1,10.444,25.371,36.353,36.353,0,0,1-.46,5.769,35.821,35.821,0,0,1-1.282,5.334,2.061,2.061,0,0,1,.329.27,2.1,2.1,0,0,1,0,2.956,2.07,2.07,0,0,1-1.806.585q-.388.852-.822,1.688-.46.886-.947,1.71l.04.039a2.6,2.6,0,0,1,0,3.659,2.561,2.561,0,0,1-2.939.5q-.477.6-.995,1.205-.438.508-.915,1.02a2.944,2.944,0,0,1-.243,3.868,2.9,2.9,0,0,1-4.064.054q-.765.588-1.576,1.142-.926.632-1.86,1.186a34.7,34.7,0,0,1-8.665,3.656,36.2,36.2,0,0,1-9.453,1.239,34.836,34.836,0,0,1-11.078-1.815,37.979,37.979,0,0,1-10.076-5.184Zm-.634-2.556a1.258,1.258,0,0,0-1.787,0,1.277,1.277,0,0,0,0,1.8,1.258,1.258,0,0,0,1.787,0,1.277,1.277,0,0,0,0-1.8ZM81.47,32.294a1.09,1.09,0,0,0,1.549,0,1.106,1.106,0,0,0,0-1.558,1.09,1.09,0,0,0-1.549,0,1.106,1.106,0,0,0,0,1.558Zm3.779-6.748a1.583,1.583,0,0,0,2.248,0,1.607,1.607,0,0,0,0-2.262,1.583,1.583,0,0,0-2.248,0,1.607,1.607,0,0,0,0,2.262Zm5.091-6.108a1.922,1.922,0,0,0,2.73,0,1.95,1.95,0,0,0,0-2.747,1.922,1.922,0,0,0-2.73,0,1.95,1.95,0,0,0,0,2.747Zm57.874,37.641a1.09,1.09,0,0,0-1.548,0,1.106,1.106,0,0,0,0,1.558,1.09,1.09,0,0,0,1.548,0,1.106,1.106,0,0,0,0-1.558Zm-8.627,13.085a1.922,1.922,0,0,0-2.73,0,1.951,1.951,0,0,0,0,2.747,1.922,1.922,0,0,0,2.73,0,1.95,1.95,0,0,0,0-2.747Zm-39.018-1.149a2.233,2.233,0,0,1,1.589.662,2.26,2.26,0,0,1,.658,1.6,2.285,2.285,0,0,1-.081.6,28.857,28.857,0,0,0,4.153,1.5l6.029-7.451a10.237,10.237,0,0,0-1.79-.51,28.919,28.919,0,0,0-3.2-.436.93.93,0,0,1-.126.134,2.207,2.207,0,0,1-2.264.467c-.2-.032-.421-.067-.7-.1a1.671,1.671,0,0,1-.9.252,2.5,2.5,0,0,1-.785-.121,2.361,2.361,0,0,1-.472-.216,1.677,1.677,0,0,1-1,.313,2.508,2.508,0,0,1-.773-.117,2.394,2.394,0,0,1-.4-.173,1.7,1.7,0,0,1-1.146.442h-.142a1.928,1.928,0,0,1-1.753-.682l-.048-.054c-.825.067-1.6.139-2.328.215q-.734.077-1.407.156a29.432,29.432,0,0,0,5.208,4.287c.031-.036.063-.07.1-.1a2.232,2.232,0,0,1,1.589-.662Zm.894,1.361a1.258,1.258,0,0,0-1.787,0,1.277,1.277,0,0,0,0,1.8,1.258,1.258,0,0,0,1.787,0,1.277,1.277,0,0,0,0-1.8Zm43.216-6.319a1.583,1.583,0,0,0-2.248,0,1.607,1.607,0,0,0,0,2.262,1.583,1.583,0,0,0,2.248,0,1.607,1.607,0,0,0,0-2.262ZM133.272,22.4q-.1.12-.206.228a3.175,3.175,0,0,1-4.51,0,3.226,3.226,0,0,1-.547-3.8,28.184,28.184,0,0,0-4.171-1.793L117.282,26.5a11.782,11.782,0,0,0,1.421.4,29.266,29.266,0,0,0,3.148.489l.036.005a1.075,1.075,0,0,1,.181-.211,2.207,2.207,0,0,1,2.264-.467c.2.032.421.067.7.1a1.671,1.671,0,0,1,.9-.252,2.5,2.5,0,0,1,.785.121,2.361,2.361,0,0,1,.472.216,1.677,1.677,0,0,1,1-.313,2.508,2.508,0,0,1,.773.117,2.394,2.394,0,0,1,.4.173,1.7,1.7,0,0,1,1.146-.442h.142a1.928,1.928,0,0,1,1.753.682,1.336,1.336,0,0,1,.148.19,1.59,1.59,0,0,1,.19.427c1.1-.023,2.061-.051,2.991-.091.762-.033,1.5-.076,2.284-.131a30.016,30.016,0,0,0-4.751-5.114Zm-.9-3.611a2.2,2.2,0,0,0-3.121,0c-.022.022-.044.046-.065.069a.375.375,0,0,1-.019.038.493.493,0,0,1-.146.165,2.23,2.23,0,0,0,.23,2.868,2.2,2.2,0,0,0,3.121,0,2.23,2.23,0,0,0,0-3.14ZM107.935,73.644q.255.061.513.116a29.179,29.179,0,0,0,6.217.666q.379,0,.555,0a29.631,29.631,0,0,0,4.328-.4c.231-.558.481-1.137.748-1.728.275-.61.575-1.25.9-1.91a.871.871,0,0,1-.085-.223.845.845,0,0,1-.021-.154,2.1,2.1,0,0,0-.972-1.481h0a6.954,6.954,0,0,0-2.746-1.157,17.559,17.559,0,0,1-1.995-.437,12.044,12.044,0,0,1-1.538-.581l-5.9,7.292Zm12.768.165a29.4,29.4,0,0,0,13.948-7.172l-3.7-8.851a11.5,11.5,0,0,0-1.484,1.352,25.022,25.022,0,0,0-1.919,2.342,1.232,1.232,0,0,1,.144.366,2.239,2.239,0,0,1-.732,2.207c-.131.161-.278.345-.439.56a1.7,1.7,0,0,1-.235.916,2.527,2.527,0,0,1-.5.623,2.4,2.4,0,0,1-.42.3,1.706,1.706,0,0,1-.229,1.026,2.542,2.542,0,0,1-.488.614,2.354,2.354,0,0,1-.349.263,1.733,1.733,0,0,1-.2,1.234,1.223,1.223,0,1,1-.064.11,1.94,1.94,0,0,1-1.465,1.189,1.314,1.314,0,0,1-.236.032,1.589,1.589,0,0,1-.306-.016c-.3.609-.577,1.212-.841,1.8q-.259.574-.487,1.106Zm14.708-7.9.053-.052a28.8,28.8,0,0,0,5.977-8.656c-.008-.011-.016-.023-.024-.035-.482-.789-1.018-1.682-1.521-2.52-.427-.712-.832-1.386-1.114-1.85a.8.8,0,0,1-.087-.022.868.868,0,0,1-.145-.058,2.077,2.077,0,0,0-1.763.106,6.988,6.988,0,0,0-2.371,1.814,17.919,17.919,0,0,1-1.372,1.52,12.113,12.113,0,0,1-1.271,1.051l3.637,8.7Zm6.5-9.824a28.523,28.523,0,0,0,2-10.534q0-.37,0-.54a30.774,30.774,0,0,0-.713-6.058l-.027,0-10.208-.964a11.974,11.974,0,0,0,.426,2.122A20.4,20.4,0,0,0,134.4,42.82a1.258,1.258,0,0,1,.425.058c1.011.363,1.18.808,1.536,1.743.079.207.168.441.261.662a1.684,1.684,0,0,1,.673.665,2.538,2.538,0,0,1,.287.745,2.413,2.413,0,0,1,.05.517,1.7,1.7,0,0,1,.769.713,2.539,2.539,0,0,1,.284.733,2.406,2.406,0,0,1,.051.435,1.717,1.717,0,0,1,.962.791l.062.11a1.956,1.956,0,0,1,.29,1.87,1.345,1.345,0,0,1-.09.223,1.607,1.607,0,0,1-.249.354c.354.581.681,1.127,1.026,1.7.375.624.768,1.28,1.174,1.949Zm1.041-18.143a30.4,30.4,0,0,0-4.268-9.493c-.016,0-.032.005-.049.006-.956.073-1.871.128-2.854.171-.952.041-1.964.07-3.142.094a.5.5,0,0,1-.079,0c-.013.013-.026.027-.04.04a.864.864,0,0,1-.122.1,2.1,2.1,0,0,0-.789,1.587,7.074,7.074,0,0,0,.375,2.975,17.917,17.917,0,0,1,.622,1.955,12.124,12.124,0,0,1,.267,1.621l10.079.951ZM122.858,16.719q-.529-.157-1.066-.293a27.552,27.552,0,0,0-7.121-.844q-1.269.016-2.517.141c-.439.952-.946,1.994-1.5,3.084-.577,1.128-1.206,2.307-1.865,3.491a2.114,2.114,0,0,0,.971,1.465h0a6.954,6.954,0,0,0,2.746,1.157,17.561,17.561,0,0,1,1.995.437,12.825,12.825,0,0,1,1.869.734l6.492-9.375Zm-11.85-.858a29.884,29.884,0,0,0-16.245,7.814L98.923,34.5a11.089,11.089,0,0,0,1.4-1.311,29.919,29.919,0,0,0,1.975-2.429,1.154,1.154,0,0,1-.116-.315,2.239,2.239,0,0,1,.732-2.207c.131-.161.278-.345.439-.56a1.7,1.7,0,0,1,.235-.916,2.526,2.526,0,0,1,.5-.623,2.4,2.4,0,0,1,.42-.3,1.706,1.706,0,0,1,.229-1.026,2.542,2.542,0,0,1,.488-.614,2.35,2.35,0,0,1,.349-.263,1.733,1.733,0,0,1,.2-1.234c.113-.2.041-.07.064-.11A1.941,1.941,0,0,1,107.3,21.4a1.315,1.315,0,0,1,.236-.032,1.567,1.567,0,0,1,.594.088c.589-1.067,1.144-2.112,1.651-3.1.45-.88.864-1.719,1.23-2.5ZM94,24.418l-.009.009A29.637,29.637,0,0,0,87.6,34.014c.847,1.31,1.687,2.645,2.412,3.795.414.659.795,1.262,1.062,1.682a.89.89,0,0,1,.105.025.868.868,0,0,1,.145.058,2.077,2.077,0,0,0,1.763-.106,6.988,6.988,0,0,0,2.371-1.814,17.915,17.915,0,0,1,1.372-1.52,12.031,12.031,0,0,1,1.27-1.05L94,24.418ZM87.159,35.147a28.776,28.776,0,0,0-1.733,9.858A29.6,29.6,0,0,0,86.7,53.641l10.151.263a12.4,12.4,0,0,0-.352-1.49,26.221,26.221,0,0,0-1.059-2.865.525.525,0,0,1-.024-.071,1.243,1.243,0,0,1-.375-.063c-1.011-.363-1.18-.808-1.536-1.743-.079-.207-.168-.441-.261-.662a1.684,1.684,0,0,1-.673-.665,2.538,2.538,0,0,1-.287-.745,2.413,2.413,0,0,1-.05-.517,1.7,1.7,0,0,1-.769-.713,2.54,2.54,0,0,1-.284-.733,2.411,2.411,0,0,1-.051-.435,1.717,1.717,0,0,1-.962-.791l-.062-.11a1.956,1.956,0,0,1-.29-1.87,1.344,1.344,0,0,1,.09-.223,1.606,1.606,0,0,1,.236-.34c-.31-.487-.625-.988-.967-1.531-.638-1.013-1.36-2.16-2.021-3.192Zm-.132,19.488A29.405,29.405,0,0,0,92.853,64.6c.684-.087,1.4-.17,2.131-.247.692-.072,1.392-.139,2.09-.2a.882.882,0,0,1,.276-.621.865.865,0,0,1,.122-.1,2.1,2.1,0,0,0,.789-1.587,7.075,7.075,0,0,0-.375-2.975,17.927,17.927,0,0,1-.622-1.955,13.084,13.084,0,0,1-.305-2.029l-9.933-.257Zm43.282-10.684a27.9,27.9,0,0,1,3.082-.99,20.8,20.8,0,0,1-.947-2.575,12.593,12.593,0,0,1-.487-2.6,12.984,12.984,0,0,0-.3-2.182,17.32,17.32,0,0,0-.591-1.851,8.136,8.136,0,0,1-.429-3.426,3.061,3.061,0,0,1,1.181-2.266.541.541,0,0,0-.083-.219.473.473,0,0,0-.036-.051,1.155,1.155,0,0,0-1.039-.369h-.129c-.858,0-1.33,1.556-1.661,2.65-.08.263-.153.5-.214.676a.491.491,0,1,1-.925-.328c.07-.2.134-.407.2-.634a10.432,10.432,0,0,1,.815-2.113l-.078-.028a1.527,1.527,0,0,0-.474-.071c-.858,0-1.33,1.556-1.662,2.649-.08.263-.153.5-.214.676a.491.491,0,1,1-.925-.328c.07-.2.134-.407.2-.634a9.513,9.513,0,0,1,.916-2.28c-.029-.012-.059-.023-.089-.033a1.529,1.529,0,0,0-.482-.074c-.858,0-1.33,1.556-1.662,2.649-.08.263-.153.5-.214.676a.491.491,0,1,1-.925-.328c.07-.2.134-.407.2-.634a9.839,9.839,0,0,1,.878-2.219l-.041-.007c-.681-.109-1.006-.161-1.477.243-.375.321-.763,2.527-1,3.895,0,.015.007-.038-.081.45a6.06,6.06,0,0,0,.157,1.881c.132.687.321,1.456.531,2.228l.008.027c.045.167.092.334.138.5.233.83,1.538,3.968,2.644,6.631.555,1.335,1.06,2.552,1.363,3.319.569-.574,1.144-1.126,1.677-1.583a6.446,6.446,0,0,1,1.75-1.172l.424-.153Zm-8.761,9.1c1.5-1.985,3.241-4.287,4.171-5.393-.221-.6-.836-2.075-1.528-3.742-1.116-2.686-2.432-5.852-2.682-6.743l-.037-.132a38.059,38.059,0,0,1-8.429-.556c-.641-.112-1.257-.236-1.842-.368-.306.372-.758,1.019-1.318,1.82a55.021,55.021,0,0,1-5.428,6.873c.163.4.48,1.162.856,2.067.982,2.364,2.364,5.691,2.518,6.173s.313,1,.469,1.549l.7.08a99.125,99.125,0,0,1,10.122,1.545c.418-.513,1.362-1.761,2.43-3.173Zm-2.221,4.22a.484.484,0,0,1-.29-.068,100.134,100.134,0,0,0-10.149-1.543l-.311-.035c.164.623.314,1.25.431,1.839a8.091,8.091,0,0,1,.209,2.732c-.057.294-.094.5-.134.719a24.717,24.717,0,0,1-.7,3.109,28.61,28.61,0,0,1,2.941.422,9.959,9.959,0,0,1,2.3.709,12.83,12.83,0,0,0,2.03.828,17.037,17.037,0,0,0,1.887.41,8.02,8.02,0,0,1,3.164,1.341h0a3.054,3.054,0,0,1,1.359,2.163.532.532,0,0,0,.23.037.383.383,0,0,0,.063-.008,1.159,1.159,0,0,0,.835-.718c.062-.109-.007.009.064-.113.431-.745-.675-1.936-1.451-2.772-.166-.179-.318-.343-.473-.526a.494.494,0,0,1,.056-.693.487.487,0,0,1,.689.056c.1.117.265.3.446.491a10.4,10.4,0,0,1,1.411,1.766l.063-.054a1.562,1.562,0,0,0,.3-.378c.431-.745-.675-1.936-1.451-2.772-.166-.179-.318-.343-.473-.526a.494.494,0,0,1,.056-.693.487.487,0,0,1,.689.056c.1.117.265.3.446.491a9.463,9.463,0,0,1,1.5,1.938c.026-.02.05-.04.073-.062a1.55,1.55,0,0,0,.3-.383c.431-.745-.675-1.936-1.451-2.772-.166-.179-.318-.343-.473-.526a.494.494,0,0,1,.056-.693.487.487,0,0,1,.689.056c.1.117.265.3.446.491a9.8,9.8,0,0,1,1.47,1.873l.026-.032c.434-.538.641-.794.528-1.408-.089-.492-1.792-1.932-2.849-2.825l-.348-.293a11.268,11.268,0,0,0-4.206-1.63Zm1.405-25.621a26.367,26.367,0,0,1,.734-3.319,29.154,29.154,0,0,1-2.973-.477,10.283,10.283,0,0,1-2.242-.724,12.78,12.78,0,0,0-2.03-.828,17.037,17.037,0,0,0-1.887-.41,8.02,8.02,0,0,1-3.164-1.341h0a3.054,3.054,0,0,1-1.359-2.163.533.533,0,0,0-.23-.037.382.382,0,0,0-.063.008,1.159,1.159,0,0,0-.835.718c-.064.113,0-.006-.064.113-.431.745.675,1.936,1.451,2.772.166.179.318.343.473.526a.494.494,0,0,1-.056.693.487.487,0,0,1-.689-.056c-.1-.117-.265-.3-.446-.491a10.4,10.4,0,0,1-1.411-1.766l-.063.054a1.562,1.562,0,0,0-.3.378c-.431.745.675,1.936,1.451,2.772.166.179.318.343.473.526a.494.494,0,0,1-.056.693.487.487,0,0,1-.689-.056c-.1-.117-.265-.3-.446-.491a9.462,9.462,0,0,1-1.5-1.938c-.026.02-.05.04-.074.062a1.551,1.551,0,0,0-.3.383c-.431.745.675,1.936,1.451,2.772.166.179.318.343.473.526a.494.494,0,0,1-.056.693.487.487,0,0,1-.689-.056c-.1-.117-.265-.3-.446-.491a9.8,9.8,0,0,1-1.47-1.873l-.026.032c-.434.538-.641.794-.528,1.408.089.492,1.792,1.932,2.849,2.825l.348.293a14.674,14.674,0,0,0,4.763,1.7.577.577,0,0,1,.066.015c.639.146,1.321.285,2.039.411a37.272,37.272,0,0,0,8,.554c-.155-.6-.293-1.187-.4-1.729a6.822,6.822,0,0,1-.157-2.24c.039-.217.018-.107.078-.446Zm-15.371,2.193a26.9,26.9,0,0,1-2.456-2.261c-.642.855-1.27,1.624-1.867,2.273a10.948,10.948,0,0,1-1.807,1.636A12.843,12.843,0,0,0,97.5,36.85a17.009,17.009,0,0,0-1.3,1.439,8.048,8.048,0,0,1-2.736,2.088,3.016,3.016,0,0,1-2.54.1h0a.535.535,0,0,0-.147.181.4.4,0,0,0-.025.057,1.172,1.172,0,0,0,.2,1.089c.052.091.027.044.066.113.425.747,2,.379,3.11.121.247-.058.474-.111.689-.15a.493.493,0,0,1,.177.969c-.171.032-.4.085-.647.142a10.3,10.3,0,0,1-2.224.346c0,.028.009.056.015.083a1.573,1.573,0,0,0,.177.447c.425.747,2,.379,3.11.121.247-.058.474-.111.689-.15a.493.493,0,0,1,.177.969c-.171.032-.4.085-.647.142a9.359,9.359,0,0,1-2.419.342c0,.032.01.064.016.1a1.572,1.572,0,0,0,.179.456c.425.747,2,.379,3.11.121.247-.058.474-.111.689-.15a.493.493,0,0,1,.177.969c-.171.032-.4.085-.647.142a9.683,9.683,0,0,1-2.345.345l.014.038c.246.647.363.954.945,1.163a2.576,2.576,0,0,0,1.008-.133c.555-.138,1.2-.351,1.813-.564.158-.055.317-.109.471-.161.369-.125.709-.239.954-.351a14.162,14.162,0,0,0,3.887-2.9.44.44,0,0,1,.056-.056,52.934,52.934,0,0,0,5.517-6.948c.417-.6.776-1.11,1.072-1.505a13.813,13.813,0,0,1-4.445-1.728l-.344-.293Zm2.446-11.5v-.007S107.805,22.342,107.806,22.349ZM96.615,49.309l-.185.044a26.545,26.545,0,0,1,1.015,2.782,12.274,12.274,0,0,1,.438,2.03.5.5,0,0,1,.066.259.486.486,0,0,1-.029.155,12.8,12.8,0,0,0,.3,2.111,17.312,17.312,0,0,0,.591,1.851,8.136,8.136,0,0,1,.429,3.426,3.06,3.06,0,0,1-1.181,2.266.541.541,0,0,0,.083.219.48.48,0,0,0,.036.051,1.155,1.155,0,0,0,1.039.369h.129c.858,0,1.33-1.556,1.661-2.65.08-.263.153-.5.214-.676a.491.491,0,1,1,.925.329c-.07.2-.134.407-.2.634a10.432,10.432,0,0,1-.815,2.113l.078.028a1.528,1.528,0,0,0,.473.071c.858,0,1.33-1.556,1.662-2.649.08-.263.153-.5.214-.676a.491.491,0,1,1,.925.328c-.07.2-.134.407-.2.634a9.511,9.511,0,0,1-.916,2.28c.029.012.059.023.089.033a1.53,1.53,0,0,0,.482.074c.858,0,1.33-1.556,1.662-2.649.08-.263.153-.5.214-.676a.491.491,0,1,1,.925.328c-.07.2-.134.407-.2.634a9.839,9.839,0,0,1-.878,2.219l.041.007c.681.109,1.006.161,1.477-.243.346-.3.7-2.257.951-3.623.057-.315.11-.6.134-.73a7.292,7.292,0,0,0-.2-2.35,42.683,42.683,0,0,0-1.156-4.306c-.136-.428-1.512-3.742-2.49-6.1-.28-.675-.528-1.272-.706-1.7a14.2,14.2,0,0,1-3.672,2.613,11.159,11.159,0,0,1-1.05.39c-.149.05-.3.1-.46.157-.636.223-1.316.446-1.9.591Zm25.451,20.634v.007S122.067,69.95,122.066,69.943Z" transform="translate(-78.754 -8.876)" fill="#034773" stroke="#034773" stroke-width="0.5"/>
</svg>
