<svg xmlns="http://www.w3.org/2000/svg" width="54" height="54" viewBox="0 0 54 54">
  <g id="Group_50" data-name="Group 50" transform="translate(-306 -716)">
    <circle id="Ellipse_26" data-name="Ellipse 26" cx="27" cy="27" r="27" transform="translate(306 716)" fill="#034773"/>
    <g id="noun-support-1410803" transform="translate(178.303 700.08)">
      <path id="Path_33" data-name="Path 33" d="M234.051,106.783c-4.582,0-8.031-6.023-8.031-9.929,0-4.005,3.6-7.264,8.031-7.264s8.031,3.258,8.031,7.264C242.082,100.759,238.633,106.783,234.051,106.783Zm0-16.491c-4.042,0-7.329,2.944-7.329,6.562,0,3.644,3.284,9.228,7.329,9.228s7.33-5.584,7.33-9.228C241.381,93.236,238.092,90.292,234.051,90.292Z" transform="translate(-79.767 -58.589)" fill="#fff" stroke="#fff" stroke-width="1"/>
      <path id="Path_34" data-name="Path 34" d="M202.186,37.324a.35.35,0,0,1-.351-.351V35.641c0-4.422-4.285-8.02-9.552-8.02h-1.478c-5.267,0-9.552,3.6-9.552,8.02v1.3a.351.351,0,1,1-.7,0v-1.3c0-4.809,4.6-8.721,10.253-8.721h1.478c5.654,0,10.253,3.912,10.253,8.721v1.332a.35.35,0,0,1-.351.351Z" transform="translate(-37.26 0)" fill="#fff" stroke="#fff" stroke-width="1"/>
      <path id="Path_35" data-name="Path 35" d="M144.564,181.153h-.648a2.945,2.945,0,1,1,0-5.865h.648a.35.35,0,0,1,.351.351V180.8a.35.35,0,0,1-.351.351Zm-.648-5.164a2.248,2.248,0,1,0,0,4.463h.3v-4.463Z" transform="translate(0 -138.706)" fill="#fff" stroke="#fff" stroke-width="1"/>
      <path id="Path_36" data-name="Path 36" d="M495.536,181.152h-.648a.35.35,0,0,1-.35-.351v-5.164a.35.35,0,0,1,.35-.351h.648a2.945,2.945,0,1,1,0,5.865Zm-.3-.7h.3a2.248,2.248,0,1,0,0-4.463h-.3Z" transform="translate(-330.799 -138.705)" fill="#fff" stroke="#fff" stroke-width="1"/>
      <path id="Path_37" data-name="Path 37" d="M193.118,400.254H170.478a.35.35,0,0,1-.351-.351v-1.166c0-4.265,3.838-7.736,8.556-7.736h6.231c4.718,0,8.556,3.47,8.556,7.736V399.9a.351.351,0,0,1-.351.351Zm-22.29-.7h21.939v-.815c0-3.879-3.524-7.034-7.854-7.034h-6.231c-4.331,0-7.854,3.156-7.854,7.034Z" transform="translate(-27.514 -340.372)" fill="#fff" stroke="#fff" stroke-width="1"/>
      <path id="Path_38" data-name="Path 38" d="M177.668,254.69h-7.411a2.458,2.458,0,0,1-2.558-2.338v-.511a.351.351,0,1,1,.7,0v.511a1.759,1.759,0,0,0,1.857,1.636h7.411a.351.351,0,0,1,0,.7Z" transform="translate(-25.244 -209.946)" fill="#fff" stroke="#fff" stroke-width="1"/>
      <path id="Path_39" data-name="Path 39" d="M317.052,264.72a1.957,1.957,0,1,1,2.128-1.95A2.047,2.047,0,0,1,317.052,264.72Zm0-3.2a1.26,1.26,0,1,0,1.427,1.249A1.348,1.348,0,0,0,317.052,261.521Z" transform="translate(-162.881 -218.668)" fill="#fff" stroke="#fff" stroke-width="1"/>
    </g>
  </g>
</svg>
