<svg xmlns="http://www.w3.org/2000/svg" width="54" height="54" viewBox="0 0 54 54">
  <g id="Group_45" data-name="Group 45" transform="translate(-306 -719)">
    <circle id="Ellipse_24" data-name="Ellipse 24" cx="27" cy="27" r="27" transform="translate(306 719)" fill="#034773"/>
    <g id="noun-idea-1175577" transform="translate(235.595 702.48)">
      <path id="Path_23" data-name="Path 23" d="M242.742,148.251a9.931,9.931,0,1,0-19.862,0,8.757,8.757,0,0,0,.306,2.362,9.27,9.27,0,0,0,1.4,3.15c.131.262.306.525.481.831.219.35.394.7.612,1.006a6.677,6.677,0,0,1,1.4,3.981v4.112a2.073,2.073,0,0,0,1.75,2.056c.438,2.231,1.75,3.631,3.981,3.631s3.587-1.4,3.981-3.631a2.107,2.107,0,0,0,1.75-2.056v-4.112a6.577,6.577,0,0,1,1.4-3.981c.175-.306.394-.656.612-1.006.175-.306.35-.569.481-.831a9.279,9.279,0,0,0,1.4-3.15,8.781,8.781,0,0,0,.306-2.362Zm-5.906,12.381h-7.962v-1.006a2.318,2.318,0,0,0-.044-.569h8.006c0,.175-.044.35-.044.569v1.006Zm-.394,3.456H229.18a.345.345,0,0,1-.35-.35v-1.356h7.962v1.356c.044.175-.131.35-.35.35Zm-3.631,3.587c-.481,0-1.706,0-2.187-1.837h4.418A2.1,2.1,0,0,1,232.811,167.675Zm7.918-17.412a8.144,8.144,0,0,1-1.181,2.625c-.175.262-.306.525-.481.831-.219.35-.394.7-.569.962a13.064,13.064,0,0,0-1.313,2.581h-8.662a11.051,11.051,0,0,0-1.313-2.581c-.175-.306-.394-.612-.569-.962-.175-.306-.35-.612-.481-.831a8.339,8.339,0,0,1-1.181-2.669,7.617,7.617,0,0,1-.262-1.969,8.181,8.181,0,0,1,16.362,0,17.53,17.53,0,0,1-.349,2.012Z" transform="translate(-135.55 -105.832)" fill="#fff"/>
      <path id="Path_24" data-name="Path 24" d="M527.547,254.24h-3.631a.875.875,0,0,0,0,1.75h3.631a.875.875,0,0,0,0-1.75Z" transform="translate(-412.262 -212.696)" fill="#fff"/>
      <path id="Path_25" data-name="Path 25" d="M469.594,95.612a.864.864,0,0,0,.612-.262l2.581-2.581a.866.866,0,0,0-1.225-1.225l-2.581,2.581a.846.846,0,0,0,0,1.225.863.863,0,0,0,.612.262Z" transform="translate(-362.185 -62.467)" fill="#fff"/>
      <path id="Path_26" data-name="Path 26" d="M339.676,28.9a.877.877,0,0,0,.875-.875V24.395a.875.875,0,1,0-1.75,0v3.631A.877.877,0,0,0,339.676,28.9Z" transform="translate(-242.415)" fill="#fff"/>
      <path id="Path_27" data-name="Path 27" d="M178.684,95.349a.846.846,0,0,0,1.225,0,.846.846,0,0,0,0-1.225l-2.581-2.581a.866.866,0,0,0-1.225,1.225Z" transform="translate(-92.185 -62.467)" fill="#fff"/>
      <path id="Path_28" data-name="Path 28" d="M113.147,254.24h-3.631a.875.875,0,1,0,0,1.75h3.631a.875.875,0,0,0,0-1.75Z" transform="translate(-30.236 -212.696)" fill="#fff"/>
      <path id="Path_29" data-name="Path 29" d="M178.684,384.422,176.1,387a.846.846,0,0,0,0,1.225.846.846,0,0,0,1.225,0l2.581-2.581a.866.866,0,0,0-1.225-1.225Z" transform="translate(-92.186 -332.466)" fill="#fff"/>
      <path id="Path_30" data-name="Path 30" d="M470.207,384.422a.866.866,0,0,0-1.225,1.225l2.581,2.581a.846.846,0,0,0,1.225,0,.846.846,0,0,0,0-1.225Z" transform="translate(-362.184 -332.466)" fill="#fff"/>
    </g>
  </g>
</svg>
