<svg xmlns="http://www.w3.org/2000/svg" width="54" height="54" viewBox="0 0 54 54">
  <g id="Group_41" data-name="Group 41" transform="translate(-352 -718)">
    <circle id="Ellipse_20" data-name="Ellipse 20" cx="27" cy="27" r="27" transform="translate(352 718)" fill="#034773"/>
    <path id="Path_22" data-name="Path 22" d="M135.692,14.811l-4.945,4.945a.36.36,0,0,1-.26.108.367.367,0,0,1-.305-.159c-.008-.011-.015-.022-.024-.032l-2.08-2.618a.367.367,0,0,1,.059-.516.36.36,0,0,1,.228-.08.367.367,0,0,1,.288.139l1.414,1.779a.642.642,0,0,0,.467.243.65.65,0,0,0,.493-.188l4.142-4.143a.37.37,0,1,1,.523.522Zm.911-1.433a1.658,1.658,0,0,0-2.344,0l-3.632,3.632-.964-1.214a1.647,1.647,0,0,0-1.3-.626,1.656,1.656,0,0,0-1.3,2.687l2.069,2.6a1.659,1.659,0,0,0,2.52.206l4.945-4.945a1.659,1.659,0,0,0,0-2.344Zm-4.7,10.38a6.735,6.735,0,1,0-6.735-6.735A6.743,6.743,0,0,0,131.9,23.758Zm8.024-6.735a8.024,8.024,0,1,0-8.024,8.024A8.033,8.033,0,0,0,139.923,17.022Zm1.316,15.394a.644.644,0,0,0-.678.391l-1.7,4.084-3.953-6.848v-.688a12.574,12.574,0,0,0,3.576-1.483l1.315,1.315a.645.645,0,0,0,.911,0l1.72-1.719,3.188,5.522Zm-7.616-1.847V28.838a.645.645,0,0,1,.518-.632,11.3,11.3,0,0,0,4.079-1.69.643.643,0,0,1,.813.08l1.226,1.226,2.437-2.438-1.226-1.226a.645.645,0,0,1-.08-.813,11.282,11.282,0,0,0,1.691-4.079.644.644,0,0,1,.632-.518h1.732V15.3h-1.732a.645.645,0,0,1-.632-.518,11.3,11.3,0,0,0-1.691-4.079.645.645,0,0,1,.08-.813L142.7,8.663,140.26,6.225l-1.226,1.226a.645.645,0,0,1-.813.08,11.283,11.283,0,0,0-4.079-1.691.644.644,0,0,1-.518-.632V3.476h-3.448V5.209a.644.644,0,0,1-.518.632,11.3,11.3,0,0,0-4.079,1.691.645.645,0,0,1-.813-.08l-1.226-1.226L121.1,8.662l1.226,1.226a.644.644,0,0,1,.081.813,11.284,11.284,0,0,0-1.691,4.079.645.645,0,0,1-.632.518h-1.732v3.448h1.732a.645.645,0,0,1,.632.518,11.3,11.3,0,0,0,1.69,4.08.643.643,0,0,1-.08.813L121.1,25.383l2.438,2.438,1.226-1.226a.644.644,0,0,1,.813-.08,11.281,11.281,0,0,0,4.079,1.69.645.645,0,0,1,.518.632v1.732Zm-8.69,6.322-1.695-4.082a.645.645,0,0,0-.679-.392l-4.383.573,3.188-5.522,1.72,1.719a.643.643,0,0,0,.911,0l1.315-1.315a12.564,12.564,0,0,0,3.577,1.483v.688Zm22.108-4.022-3.663-6.344.687-.686a.644.644,0,0,0,0-.911l-1.316-1.316a12.538,12.538,0,0,0,1.482-3.577h1.859a.644.644,0,0,0,.644-.644V14.655a.644.644,0,0,0-.644-.644h-1.859a12.565,12.565,0,0,0-1.482-3.577l1.315-1.315a.645.645,0,0,0,0-.911l-3.35-3.349a.643.643,0,0,0-.911,0l-1.315,1.315a12.548,12.548,0,0,0-3.576-1.483V2.831a.645.645,0,0,0-.645-.644h-4.736a.644.644,0,0,0-.644.644V4.69a12.541,12.541,0,0,0-3.577,1.483l-1.316-1.315a.643.643,0,0,0-.911,0l-3.349,3.349a.645.645,0,0,0,0,.911l1.316,1.315a12.536,12.536,0,0,0-1.483,3.577h-1.859a.644.644,0,0,0-.644.644v4.736a.644.644,0,0,0,.644.644h1.859a12.527,12.527,0,0,0,1.483,3.577l-1.316,1.315a.645.645,0,0,0,0,.911l.686.686-3.663,6.345a.99.99,0,0,0,.986,1.478l4.494-.588,1.737,4.185a.984.984,0,0,0,.851.609l.066,0a.983.983,0,0,0,.856-.5l3.6-6.229a.625.625,0,0,0,.188.028h4.736a.628.628,0,0,0,.188-.028l3.6,6.229a.985.985,0,0,0,.856.5l.066,0a.985.985,0,0,0,.85-.609l1.737-4.185,4.493.588a.99.99,0,0,0,.986-1.478Z" transform="translate(247.101 724.629)" fill="#fff" fill-rule="evenodd"/>
  </g>
</svg>
