<svg xmlns="http://www.w3.org/2000/svg" width="54" height="54" viewBox="0 0 54 54">
  <g id="Group_47" data-name="Group 47" transform="translate(-306 -716)">
    <circle id="Ellipse_25" data-name="Ellipse 25" cx="27" cy="27" r="27" transform="translate(306 716)" fill="#034773"/>
    <g id="noun-price-2970210" transform="translate(242.767 712.648)">
      <path id="Path_31" data-name="Path 31" d="M287.4,159.142h-1.138a1.146,1.146,0,0,1-.924-.427,1.257,1.257,0,0,1-.32-1,1.321,1.321,0,0,1,1.351-1.138h1.315a.8.8,0,0,1,.782.64.5.5,0,0,0,.5.391h1.493a.571.571,0,0,0,.391-.178.535.535,0,0,0,.142-.391,3.323,3.323,0,0,0-2.879-2.951v-1.28a.486.486,0,0,0-.5-.5h-1.493a.486.486,0,0,0-.5.5v1.315a3.751,3.751,0,0,0-3.057,4.053,3.871,3.871,0,0,0,3.91,3.377h.96a1.146,1.146,0,0,1,.924.427,1.257,1.257,0,0,1,.32,1,1.321,1.321,0,0,1-1.351,1.138h-1.315a.8.8,0,0,1-.782-.64.5.5,0,0,0-.5-.391h-1.493a.571.571,0,0,0-.391.178.535.535,0,0,0-.142.391,3.323,3.323,0,0,0,2.879,2.951v1.28a.486.486,0,0,0,.5.5h1.493a.486.486,0,0,0,.5-.5v-1.351a3.765,3.765,0,0,0,3.057-3.271,3.729,3.729,0,0,0-3.733-4.123Z" transform="translate(-196.674 -129.012)" fill="#fff"/>
      <path id="Path_32" data-name="Path 32" d="M116.323,29.668l-2.737-1.849,1.458-2.951a2.082,2.082,0,0,0-1.707-2.986l-3.306-.213-.213-3.306a1.983,1.983,0,0,0-1.031-1.635,2.111,2.111,0,0,0-1.955-.071l-2.915,1.493-1.849-2.737a2.133,2.133,0,0,0-3.413,0l-1.848,2.737-2.951-1.458A2.082,2.082,0,0,0,90.87,18.4l-.213,3.306-3.306.213a1.983,1.983,0,0,0-1.635,1.031,2.043,2.043,0,0,0-.071,1.92L87.1,27.82l-2.737,1.849a2.037,2.037,0,0,0,0,3.413L87.1,34.929,85.644,37.88a2.114,2.114,0,0,0,.107,1.955,2.033,2.033,0,0,0,1.635,1.031l3.306.213.213,3.306a1.983,1.983,0,0,0,1.031,1.635,2.111,2.111,0,0,0,1.955.071l2.951-1.458,1.849,2.737a2.037,2.037,0,0,0,3.413,0l1.849-2.737,2.951,1.458a2.082,2.082,0,0,0,2.986-1.707l.213-3.306,3.306-.213a1.983,1.983,0,0,0,1.635-1.031,2.111,2.111,0,0,0,.071-1.955l-1.458-2.951,2.737-1.849a2.094,2.094,0,0,0,.924-1.706,2.377,2.377,0,0,0-1-1.706Zm-4.266,3.448a2.072,2.072,0,0,0-.711,2.631l1.386,2.773-3.128.213a2.064,2.064,0,0,0-1.92,1.92l-.213,3.093L104.7,42.359a2.072,2.072,0,0,0-2.631.711l-1.707,2.56-1.742-2.6a2.007,2.007,0,0,0-1.706-.924,1.929,1.929,0,0,0-.889.213L93.251,43.71l-.213-3.057a2.064,2.064,0,0,0-1.92-1.92l-3.093-.214,1.386-2.773a2.072,2.072,0,0,0-.711-2.631l-2.6-1.742,2.56-1.742A2.072,2.072,0,0,0,89.377,27L87.99,24.229l3.093-.213A2.064,2.064,0,0,0,93,22.1L93.216,19l2.773,1.386a2.072,2.072,0,0,0,2.631-.711l1.742-2.56,1.742,2.6a2.112,2.112,0,0,0,2.631.711l2.773-1.386.213,3.093a2.064,2.064,0,0,0,1.92,1.92l3.093.213-1.386,2.773a2.072,2.072,0,0,0,.711,2.631l2.6,1.742Z" transform="translate(-10.206)" fill="#fff"/>
    </g>
  </g>
</svg>
